<svg xmlns="http://www.w3.org/2000/svg" viewBox="0 0 1080.92 1133.26"><defs><style>.cls-1{fill:#fff;}</style></defs><title>10BET_JAPAN_LOGO_RGB_WHITE</title><g id="Layer_1" data-name="Layer 1"><path class="cls-1" d="M670.6,0C497.39,0,349.25,107.33,289.05,259.11V19.1H1.62V801.55H289.05v-240c60.2,151.78,208.34,259.11,381.55,259.11,226.61,0,410.32-183.71,410.32-410.33S897.21,0,670.6,0Zm83.59,619.57h-55.3V752.06H642.31V619.57H587V559.23H754.19Zm0-234.23H652.13v21h91.23v55.78H652.13v19.61H754.24v56.58H587V328.76H754.24ZM691.69,307.8H587V98.29H688.74C732,98.29,760,121.71,760,158c0,17.86-6.56,32.53-18.66,42.2,13.51,9.91,21.34,26,21.34,44.73C762.65,283.11,734.79,307.8,691.69,307.8Z"/><path class="cls-1" d="M682,227H652.12v26.05H682c13.61,0,15.18-7.89,15.18-13.83C697.21,228.24,686.6,227,682,227Z"/><path class="cls-1" d="M694.8,163.33c0-3.58,0-12-15.71-12h-27v23.91h27C694.8,175.29,694.8,166.29,694.8,163.33Z"/></g><g id="Layer_2" data-name="Layer 2"><path class="cls-1" d="M0,1046.92H76.44c0,15.29,5.39,23.39,16.79,23.39,12,0,16.78-8.1,16.78-20.39V917.43h76.44v123.5c0,67.44-37.17,92.33-93.22,92.33C27.88,1133.26,0,1094.59,0,1046.92Z"/><path class="cls-1" d="M269.18,1104.18l-5.69,23.08H185l71.94-209.83h86l71.94,209.83H336.33l-5.7-23.08Zm30.58-122-17.39,69.54h34.77Z"/><path class="cls-1" d="M625.89,998.06c0,46.17-34.77,80.34-81.23,80.34H507.79v48.86H431.35V917.43H544.66C591.42,917.43,625.89,951.9,625.89,998.06Zm-77.93,0c0-13.48-9.3-23.38-21.59-23.38H507.79v46.77h18.28C538.66,1021.45,548,1011.55,548,998.06Z"/><path class="cls-1" d="M687.64,1104.18,682,1127.26H603.41l71.94-209.83h86l72,209.83H754.79l-5.7-23.08Zm30.58-122-17.39,69.54h34.78Z"/><path class="cls-1" d="M926.25,917.43l52.16,102.82V917.43h73.44v209.83H975.41l-52.15-102.82v102.82H849.81V917.43Z"/></g></svg>